#!OML:ASF H:\Punching\Project 1\Capture day 1\Session 1\female.ASF
:FULLY-SPECIFIED
:DEGREES
1026
root 0.825213 13.0577 -0.0361148 20.5871 -16.9907 6.51852
lowerback 18.5862 1.26327 -3.15518
upperback -1.18842 1.08959 1.05427
thorax -11.8919 0.750867 2.65819
lowerneck -12.1628 -2.87708 5.78849
upperneck 8.72332 -4.66943 -1.48782
head 4.42639 -2.19094 -1.72381
rclavicle -8.74653e-015 0
rhumerus 42.5342 0.413904 -62.1524
rradius 85.154
rwrist -49.6084
rhand -21.3091 -20.9649
rfingers 7.12502
rthumb 5.07588 -50.8841
lclavicle -8.74653e-015 0
lhumerus 32.9523 -38.5474 74.3861
lradius 132.873
lwrist 13.2862
lhand -25.247 11.7412
lfingers 7.12502
lthumb 1.27301 41.7171
rfemur -41.3942 -25.5928 -7.39077
rtibia 71.5072
rfoot -36.1857 -1.72945
rtoes -31.6816
lfemur -74.231 7.90935 -20.2383
ltibia 66.3928
lfoot -10.2275 9.90524
ltoes -6.48226
1027
root 0.864091 13.112 -0.0177366 20.7913 -18.4454 6.19454
lowerback 18.4493 1.20028 -3.31702
upperback -1.20964 0.974302 1.0566
thorax -11.832 0.706855 2.78684
lowerneck -12.1759 -2.66138 5.88042
upperneck 8.59519 -4.37342 -1.68837
head 4.39317 -2.05797 -1.77883
rclavicle -1.82882e-014 -2.62396e-014
rhumerus 40.6517 2.1084 -62.3845
rradius 89.6011
rwrist -50.9345
rhand -20.4041 -20.1468
rfingers 7.12502
rthumb 5.94966 -50.0433
lclavicle -1.82882e-014 -2.62396e-014
lhumerus 33.2342 -38.086 74.0724
lradius 132.912
lwrist 13.7445
lhand -25.1834 11.6136
lfingers 7.12502
lthumb 1.33446 41.5891
rfemur -41.9646 -25.1288 -6.88645
rtibia 70.1164
rfoot -35.8379 -1.40862
rtoes -30.7652
lfemur -73.804 8.52353 -19.9199
ltibia 66.1979
lfoot -10.4659 10.7594
ltoes -6.25607
1028
root 0.904843 13.164 0.00277565 21.0152 -19.9854 5.87605
lowerback 18.3109 1.14435 -3.50433
upperback -1.24475 0.860552 1.03666
thorax -11.7866 0.664636 2.90444
lowerneck -12.2124 -2.41513 6.02299
upperneck 8.53254 -4.04388 -1.92159
head 4.38456 -1.9074 -1.85137
rclavicle -2.38542e-014 3.18055e-015
rhumerus 38.7188 3.80023 -62.6642
rradius 93.7238
rwrist -51.3122
rhand -19.3539 -19.0566
rfingers 7.12502
rthumb 6.96354 -48.9221
lclavicle -2.38542e-014 3.18055e-015
lhumerus 33.5057 -37.5713 73.7469
lradius 132.964
lwrist 14.2927
lhand -25.0453 11.4219
lfingers 7.12502
lthumb 1.46786 41.3965
rfemur -42.6193 -24.7206 -6.34279
rtibia 68.7404
rfoot -35.4419 -1.19597
rtoes -29.7392
lfemur -73.3917 9.18609 -19.637
ltibia 66.0568
lfoot -10.7453 11.6273
ltoes -6.00929
1029
root 0.946589 13.2129 0.025194 21.2561 -21.6045 5.56282
lowerback 18.1784 1.09886 -3.7195
upperback -1.30055 0.752047 0.994099
thorax -11.7679 0.626538 3.011
lowerneck -12.2557 -2.138 6.21405
upperneck 8.5389 -3.67946 -2.1807
head 4.39979 -1.7383 -1.93851
rclavicle -1.70955e-014 -3.57812e-014
rhumerus 36.7308 5.49196 -62.9839
rradius 97.5603
rwrist -50.9715
rhand -18.3075 -17.7339
rfingers 7.12502
rthumb 7.97352 -47.5636
lclavicle -1.70955e-014 -3.57812e-014
lhumerus 33.7525 -37.0416 73.4051
lradius 133.035
lwrist 14.8299
lhand -24.8972 11.2449
lfingers 7.12502
lthumb 1.61086 41.2186
rfemur -43.3607 -24.369 -5.75149
rtibia 67.4039
rfoot -35.0172 -1.12221
rtoes -28.6766
lfemur -72.9984 9.90905 -19.3967
ltibia 65.9727
lfoot -11.0686 12.4877
ltoes -5.71922
1030
root 0.988536 13.2587 0.0491954 21.5175 -23.2971 5.24047
lowerback 18.0485 1.06139 -3.96983
upperback -1.36971 0.646072 0.945606
thorax -11.766 0.592252 3.13007
lowerneck -12.3201 -1.81936 6.43809
upperneck 8.61149 -3.26378 -2.46626
head 4.44198 -1.54343 -2.03691
rclavicle -3.33958e-014 3.18055e-015
rhumerus 34.7356 7.17442 -63.3354
rradius 101.135
rwrist -50.1873
rhand -17.2486 -16.2559
rfingers 7.12502
rthumb 8.99542 -46.0442
lclavicle -3.33958e-014 3.18055e-015
lhumerus 33.9799 -36.498 73.0339
lradius 133.126
lwrist 15.2524
lhand -24.792 11.1393
lfingers 7.12502
lthumb 1.71249 41.1121
rfemur -44.1779 -24.0379 -5.11379
rtibia 66.1255
rfoot -34.5937 -1.17288
rtoes -27.6781
lfemur -72.6261 10.7067 -19.1901
ltibia 65.947
lfoot -11.4356 13.326
ltoes -5.38787
1031
root 1.03018 13.3013 0.0745763 21.7995 -25.0539 4.90116
lowerback 17.942 1.03302 -4.25095
upperback -1.46178 0.544304 0.894191
thorax -11.8039 0.563255 3.26215
lowerneck -12.3998 -1.45885 6.68878
upperneck 8.75136 -2.79555 -2.7694
head 4.51162 -1.32198 -2.14233
rclavicle -5.56597e-015 1.59028e-015
rhumerus 32.7319 8.8293 -63.7208
rradius 104.48
rwrist -49.1939
rhand -16.1458 -14.7401
rfingers 7.12502
rthumb 10.0595 -44.4797
lclavicle -5.56597e-015 1.59028e-015
lhumerus 34.1639 -35.9659 72.6411
lradius 133.231
lwrist 15.4861
lhand -24.7736 11.1165
lfingers 7.12502
lthumb 1.73025 41.0892
rfemur -45.04 -23.6749 -4.47149
rtibia 64.9169
rfoot -34.1943 -1.26953
rtoes -26.8568
lfemur -72.2754 11.5914 -19.0196
ltibia 65.9797
lfoot -11.8438 14.1248
ltoes -5.02595
1032
root 1.07162 13.3405 0.101022 22.1058 -26.8605 4.53659
lowerback 17.8468 1.00748 -4.56231
upperback -1.56119 0.440144 0.849618
thorax -11.8563 0.536185 3.41963
lowerneck -12.5075 -1.04866 6.9665
upperneck 8.93726 -2.26482 -3.09062
head 4.60554 -1.06974 -2.2538
rclavicle -2.34566e-014 -2.54444e-014
rhumerus 30.7722 10.4457 -64.1276
rradius 107.607
rwrist -48.1593
rhand -15.0268 -13.2942
rfingers 7.12502
rthumb 11.1389 -42.9786
lclavicle -2.34566e-014 -2.54444e-014
lhumerus 34.3254 -35.4113 72.2209
lradius 133.352
lwrist 15.5376
lhand -24.8339 11.1892
lfingers 7.12502
lthumb 1.67198 41.1624
rfemur -45.9167 -23.2295 -3.8788
rtibia 63.7827
rfoot -33.8318 -1.30903
rtoes -26.2792
lfemur -71.9521 12.5603 -18.8808
ltibia 66.0714
lfoot -12.2883 14.8762
ltoes -4.64701
1033
root 1.11286 13.3761 0.128402 22.4324 -28.6982 4.15493
lowerback 17.7494 0.978572 -4.89806
upperback -1.65467 0.326682 0.8056
thorax -11.8993 0.506386 3.59404
lowerneck -12.6369 -0.589169 7.27728
upperneck 9.13762 -1.67369 -3.42061
head 4.71389 -0.787677 -2.36852
rclavicle 3.65764e-014 1.94809e-014
rhumerus 28.8851 11.9998 -64.5587
rradius 110.529
rwrist -47.1881
rhand -13.9039 -12.0094
rfingers 7.12502
rthumb 12.2218 -41.6323
lclavicle 3.65764e-014 1.94809e-014
lhumerus 34.491 -34.8265 71.7545
lradius 133.486
lwrist 15.4317
lhand -24.9677 11.3402
lfingers 7.12502
lthumb 1.54274 41.3144
rfemur -46.7834 -22.6757 -3.39644
rtibia 62.7212
rfoot -33.5058 -1.19142
rtoes -26.0016
lfemur -71.6609 13.6006 -18.7841
ltibia 66.2234
lfoot -12.7652 15.5759
ltoes -4.26519
1034
root 1.15373 13.4067 0.155385 22.7883 -30.5431 3.75129
lowerback 17.664 0.939035 -5.25705
upperback -1.75611 0.19477 0.77269
thorax -11.9558 0.470927 3.79913
lowerneck -12.7522 -0.08851 7.61027
upperneck 9.33097 -1.02885 -3.75703
head 4.82483 -0.47953 -2.48344
rclavicle 3.73715e-014 1.51076e-014
rhumerus 27.0716 13.496 -65.0137
rradius 113.261
rwrist -46.3677
rhand -12.7923 -10.9748
rfingers 7.12502
rthumb 13.2934 -40.5309
lclavicle 3.73715e-014 1.51076e-014
lhumerus 34.6204 -34.1588 71.3041
lradius 133.641
lwrist 15.3718
lhand -25.0524 11.4241
lfingers 7.12502
lthumb 1.46098 41.3988
rfemur -47.6481 -22.0032 -3.04055
rtibia 61.7369
rfoot -33.1895 -0.860359
rtoes -25.9514
lfemur -71.4261 14.702 -18.7233
ltibia 66.4403
lfoot -13.2598 16.218
ltoes -3.89269
1035
root 1.19427 13.4318 0.183519 23.1351 -32.3675 3.36138
lowerback 17.5899 0.880857 -5.63728
upperback -1.85142 0.0326255 0.736746
thorax -12.0073 0.422802 4.0212
lowerneck -12.8444 0.446913 7.97805
upperneck 9.5055 -0.340753 -4.09728
head 4.93339 -0.149898 -2.60009
rclavicle 2.88238e-014 1.5704e-014
rhumerus 25.3204 14.9172 -65.4983
rradius 115.814
rwrist -45.7671
rhand -11.7491 -10.1416
rfingers 7.12502
rthumb 14.2987 -39.6292
lclavicle 2.88238e-014 1.5704e-014
lhumerus 34.7378 -33.415 70.8571
lradius 133.823
lwrist 15.3967
lhand -25.0924 11.4431
lfingers 7.12502
lthumb 1.42234 41.4181
rfemur -48.4799 -21.2803 -2.83691
rtibia 60.8323
rfoot -32.8816 -0.303762
rtoes -26.1145
lfemur -71.2232 15.8242 -18.7219
ltibia 66.7284
lfoot -13.7874 16.8065
ltoes -3.53864
1036
root 1.23376 13.4498 0.212439 23.4629 -34.1606 2.98753
lowerback 17.5323 0.803466 -6.04221
upperback -1.94342 -0.161235 0.702683
thorax -12.0593 0.362016 4.26819
lowerneck -12.8784 1.0059 8.37185
upperneck 9.64201 0.380114 -4.44261
head 5.02789 0.195822 -2.71781
rclavicle 1.12612e-013 -9.8796e-014
rhumerus 23.6237 16.2625 -66.0099
rradius 118.194
rwrist -45.4457
rhand -10.8037 -9.4848
rfingers 7.12502
rthumb 15.2095 -38.9057
lclavicle 1.12612e-013 -9.8796e-014
lhumerus 34.8368 -32.6097 70.4193
lradius 134.039
lwrist 15.5291
lhand -25.1023 11.4126
lfingers 7.12502
lthumb 1.41274 41.3877
rfemur -49.3032 -20.5505 -2.73996
rtibia 60.025
rfoot -32.5524 0.431048
rtoes -26.3764
lfemur -71.0526 16.9605 -18.7722
ltibia 67.0957
lfoot -14.35 17.3412
ltoes -3.20411
1037
root 1.27168 13.4594 0.242064 23.7594 -35.9067 2.63175
lowerback 17.507 0.703425 -6.46855
upperback -2.03784 -0.391416 0.677469
thorax -12.1262 0.287275 4.54762
lowerneck -12.8347 1.58117 8.76983
upperneck 9.74192 1.12959 -4.78928
head 5.10575 0.555502 -2.83245
rclavicle 1.4064e-014 -2.41026e-014
rhumerus 21.9618 17.5366 -66.5402
rradius 120.412
rwrist -45.4633
rhand -9.98831 -8.97096
rfingers 7.12502
rthumb 15.9949 -38.3306
lclavicle 1.4064e-014 -2.41026e-014
lhumerus 34.9048 -31.7687 69.9955
lradius 134.289
lwrist 15.7322
lhand -25.1153 11.3593
lfingers 7.12502
lthumb 1.40019 41.3344
rfemur -50.1246 -19.8588 -2.70208
rtibia 59.3354
rfoot -32.1978 1.27694
rtoes -26.6514
lfemur -70.9094 18.0997 -18.8639
ltibia 67.5464
lfoot -14.9517 17.8198
ltoes -2.8784
1038
root 1.30773 13.46 0.271795 24.0152 -37.5922 2.29436
lowerback 17.51 0.592882 -6.89885
upperback -2.11867 -0.639877 0.642614
thorax -12.1887 0.203932 4.82383
lowerneck -12.7544 2.15974 9.22801
upperneck 9.81226 1.87902 -5.15363
head 5.17489 0.916063 -2.96095
rclavicle -4.53478e-014 1.33186e-014
rhumerus 20.3382 18.6657 -67.0982
rradius 122.463
rwrist -45.8489
rhand -9.32507 -8.60015
rfingers 7.12502
rthumb 16.6335 -37.9074
lclavicle -4.53478e-014 1.33186e-014
lhumerus 35.0102 -30.954 69.5402
lradius 134.572
lwrist 15.9628
lhand -25.1588 11.3468
lfingers 7.12502
lthumb 1.35822 41.3222
rfemur -50.948 -19.2263 -2.68726
rtibia 58.7876
rfoot -31.8317 2.17016
rtoes -26.8807
lfemur -70.7896 19.2307 -18.9857
ltibia 68.0799
lfoot -15.5885 18.2451
ltoes -2.56258
